<svg version="1.1" xmlns="http://www.w3.org/2000/svg" viewBox="-301.2 -3272.0999999999995 4086.4 4706.999999999999"><desc>Created with Snap</desc><defs></defs><g><rect x="-301.2" y="-3272.0999999999995" width="4086.4" height="4706.999999999999" fill="rgba(0,0,0,0)" style=""></rect><g transform="matrix(20.0426,0,0,20.0426,739.8707,-3053.5202)"><g><path d="M76.754,4.951h0.02C76.965,4.278,76.979,4.213,76.754,4.951z" fill="#292929" style=""></path><path d="M50.67,98.61c10.761-38.482,10.449-38.656,18.228-66.094l1.871,1.08c1.016,0.587,1.848,0.107,1.848-1.064V19.447   c2.064-7.23,3.682-12.816,4.156-14.496h8.428l14,12.97l-9.195,7.946l6.953,7.517L51.135,98.61   C50.911,98.978,50.599,98.894,50.67,98.61z" fill="#292929" style=""></path></g><g><path d="M55.676,15.666c0.414,0,0.752,0.229,0.752,0.513v6.706c0,0.283-0.338,0.513-0.752,0.513h-11.32   c-0.416,0-0.753-0.229-0.753-0.513v-6.706c0-0.283,0.337-0.513,0.753-0.513H55.676" fill="#292929" style=""></path><path d="M69.648,8.241L57.195,15.43c0.145,0.22,0.232,0.473,0.232,0.749v6.706c0,0.348-0.135,0.662-0.357,0.915l12.578,7.261   c0.857,0.495,1.561,0.09,1.561-0.899V9.141C71.209,8.151,70.506,7.747,69.648,8.241z" fill="#292929" style=""></path><path d="M42.603,22.885v-6.706c0-0.275,0.088-0.528,0.231-0.748l-12.453-7.19c-0.857-0.494-1.56-0.09-1.56,0.9v21.021   c0,0.989,0.702,1.395,1.56,0.899l12.577-7.262C42.737,23.546,42.603,23.233,42.603,22.885z" fill="#292929" style=""></path></g><g><path d="M48.865,98.61h0.465c-10.76-38.482-10.45-38.656-18.228-66.094l-1.871,1.08c-1.016,0.587-1.848,0.107-1.848-1.064V19.447   c-2.065-7.23-3.682-12.816-4.157-14.496h-8.427l-14,12.97l9.194,7.946l-6.953,7.517L48.865,98.61z" fill="#292929" style=""></path><path d="M23.226,4.951h0.02C23.022,4.213,23.035,4.278,23.226,4.951z" fill="#292929" style=""></path></g><circle cx="49.659" cy="34" r="3.399" fill="#292929" style=""></circle><circle cx="49.659" cy="54.21" r="3.399" fill="#292929" style=""></circle><circle cx="49.659" cy="74.423" r="3.399" fill="#292929" style=""></circle><desc>Created with Snap</desc><defs></defs></g><g><g transform="matrix(0.5,0,0,-0.5,0,0)"><path d="M36 1080Q12 1138 12 1217Q12 1296 18 1346Q24 1397 34 1438Q58 1530 93 1530L974 1530Q1032 1530 1052 1358Q1057 1310 1057 1259Q1057 1139 1031 1080Q945 1347 808 1422Q777 1440 747 1440Q717 1440 700 1424Q683 1409 672 1375Q654 1315 654 1231L654 856L655 550L655 260Q655 162 680 115Q706 69 732 45Q759 21 795 0L284 0Q356 59 376 97Q413 166 413 260L413 1161Q413 1318 401 1363Q389 1409 372 1424Q355 1440 325 1440Q295 1440 264 1422Q233 1405 203 1376Q174 1348 147 1310Q121 1273 99 1233Q56 1154 36 1080ZM2002 964L2002 916L1987 469Q1987 196 2035 94Q2052 57 2095 0L1817 0Q1794 68 1787 172Q1671 -20 1488 -20Q1362 -20 1295 74Q1229 165 1229 324L1229 459Q1229 504 1229 551L1227 642Q1226 729 1221 777Q1217 826 1211 858Q1206 891 1198 916Q1190 942 1180 964L1158 1010L1447 1010Q1448 994 1448 980L1448 951Q1448 951 1431 449Q1431 302 1450 249Q1469 196 1495 173Q1522 150 1566 150Q1685 150 1759 280Q1779 317 1792 355Q1794 411 1794 482Q1794 847 1740 964L1718 1010L2003 1010Q2002 985 2002 964ZM2825 836Q2834 876 2834 913Q2834 951 2815 1010L3110 1010Q3068 950 3057 934L2825 574L2788 511Q2929 294 2981 220L3051 120Q3068 94 3080 74L3103 38Q3114 22 3130 0L2715 0Q2726 31 2737 60Q2749 89 2749 121Q2749 154 2736 191Q2723 228 2703 267Q2683 306 2660 344L2617 415Q2494 241 2494 118Q2494 78 2520 0L2215 0L2458 405Q2508 486 2537 546Q2417 741 2376 802Q2277 952 2265 968L2237 1010L2652 1010Q2626 932 2626 877Q2626 787 2717 628Q2796 716 2825 836ZM4709 534L4706 342Q4706 163 4739 98Q4759 59 4786 38L4833 0L4543 0L4512 116Q4399 -20 4190 -20Q4071 -20 3998 60Q3934 132 3934 230Q3934 328 3980 401Q4027 474 4103 522Q4253 615 4480 619L4480 630Q4480 873 4405 915Q4378 930 4335 930Q4293 930 4251 902Q4209 874 4175 830Q4107 741 4078 620Q3989 673 3989 823Q3989 884 4005 960Q4043 960 4077 971L4154 995Q4267 1030 4375 1030Q4483 1030 4547 998Q4612 966 4648 903Q4709 796 4709 534ZM4150 210Q4150 148 4178 114Q4207 80 4250 80Q4293 80 4333 102Q4373 125 4405 164Q4480 253 4480 373L4480 521Q4340 508 4249 428Q4150 342 4150 210ZM5279 0L4992 0Q5038 158 5038 543Q5038 817 4990 917Q4978 942 4963 964L4930 1010L5277 1010Q5262 960 5257 916L5249 844Q5370 1030 5557 1030Q5678 1030 5746 936Q5812 844 5812 687L5812 580Q5812 305 5817 244Q5822 183 5825 151Q5828 119 5832 94Q5839 47 5853 0L5560 0Q5606 158 5606 543Q5606 697 5586 754Q5567 811 5540 835Q5513 860 5469 860Q5388 860 5322 796Q5265 741 5235 656Q5233 629 5233 600L5233 543Q5233 158 5279 0ZM6697 0L6683 79Q6574 -20 6406 -20Q6252 -20 6163 69Q6071 161 6071 328Q6071 496 6120 621Q6169 747 6249 832Q6407 1000 6637 1009Q6629 1317 6616 1362Q6604 1408 6591 1434Q6579 1461 6563 1483L6529 1530L6894 1530Q6866 1429 6861 1334Q6857 1239 6855 1167Q6853 1095 6852 1016Q6849 884 6849 753Q6849 623 6849 556Q6850 489 6852 429Q6857 204 6869 161Q6881 119 6893 93Q6906 68 6922 46L6956 0L6697 0ZM6638 367Q6643 521 6643 655Q6643 790 6640 912Q6495 890 6408 741Q6321 593 6321 368Q6321 235 6341 182Q6362 129 6390 104Q6419 80 6459 80Q6500 80 6530 96Q6561 113 6584 145Q6634 213 6638 367Z" fill="#292929" style=""></path></g></g><g transform="matrix(1,0,0,1,542.75,1117.2)"><g transform="matrix(0.5,0,0,-0.5,0,0)"><path d="M775 489L774 619Q774 732 752 769Q730 807 706 824Q682 842 647 860L1086 860Q1023 802 1006 712Q990 626 990 446Q990 96 1032 -20Q1018 -21 1004 -21L977 -21Q537 -21 310 262Q93 533 93 1031Q93 1277 238 1408Q372 1530 597 1530L773 1528Q912 1528 967 1562Q990 1577 1006 1600Q1031 1552 1031 1468Q1031 1384 1026 1332Q1021 1281 1011 1232Q990 1128 946 1070Q908 1270 851 1346Q787 1430 651 1430Q479 1430 408 1292Q357 1191 357 986Q357 705 444 447Q505 266 596 190Q643 150 693 150Q744 150 758 179Q772 208 773 278Q775 416 775 489ZM1689 930Q1599 930 1559 840Q1520 750 1520 537Q1520 80 1689 80Q1779 80 1818 202Q1858 324 1858 537Q1858 750 1818 840Q1779 930 1689 930ZM1268 575Q1268 1030 1689 1030Q2110 1030 2110 575Q2110 299 1994 138Q1881 -20 1689 -20Q1497 -20 1384 138Q1268 299 1268 575ZM2840 1010L3169 1010Q3127 941 3127 803Q3127 770 3147 699Q3195 538 3216 474L3291 256Q3338 395 3359 464Q3458 794 3458 835Q3458 876 3454 897Q3450 919 3443 938Q3431 965 3396 1010L3731 1010Q3669 943 3645 883Q3621 824 3609 793L3485 445Q3439 305 3419 237Q3407 183 3407 122Q3407 61 3433 -1L3063 0Q3087 38 3091 71Q3096 105 3096 137Q3096 169 3086 216Q3076 263 3059 324Q3025 451 2973 595Q2876 347 2856 266Q2836 186 2836 124Q2836 63 2863 -1L2493 0Q2517 38 2521 71Q2526 105 2526 140Q2526 176 2511 243Q2497 310 2473 395Q2449 480 2418 574Q2387 669 2353 755Q2276 950 2223 1010L2592 1010Q2574 966 2574 913Q2574 860 2581 820Q2589 781 2601 729Q2614 677 2631 617L2731 266Q2874 628 2890 697Q2906 767 2906 787Q2906 916 2840 1010ZM4130 0L3843 0Q3889 158 3889 543Q3889 817 3841 917Q3829 942 3814 964L3781 1010L4128 1010Q4113 960 4108 916L4100 844Q4221 1030 4408 1030Q4529 1030 4597 936Q4663 844 4663 687L4663 580Q4663 305 4668 244Q4673 183 4676 151Q4679 119 4683 94Q4690 47 4704 0L4411 0Q4457 158 4457 543Q4457 697 4437 754Q4418 811 4391 835Q4364 860 4320 860Q4239 860 4173 796Q4116 741 4086 656Q4084 629 4084 600L4084 543Q4084 158 4130 0Z" fill="#292929" style=""></path></g></g></g></svg>