<svg width="640" height="480" xmlns="http://www.w3.org/2000/svg" xmlns:svg="http://www.w3.org/2000/svg">
 <!-- Created with SVG-edit - https://github.com/SVG-Edit/svgedit-->
 <g class="layer">
  <title>Layer 1</title>
  <path d="m190,91c-13,-12 -33,-16 -35,-17c-2,-1 -26,4 -28,4c-2,0 0,11 -26,23c-26,12 -50,20 -50,19c0,-1 48,4 49,4c1,0 49,-1 51,0c2,1 31,-4 31,-4c0,0 12,19 14,20c2,1 9,-13 4,12c-5,25 -24,62 -27,64c-3,2 -35,21 -51,43c-16,22 -22,35 -34,53c-12,18 -29,41 -26,64c3,23 -3,45 33,55c36,10 104,14 150,12c46,-2 119,-11 119,-10c0,1 71,-28 71,-29c0,-1 38,-47 39,-51c1,-4 50,-53 57,-56c7,-3 21,-9 37,-14c16,-5 -19,-9 -34,-18c-15,-9 -69,-51 -71,-53c-2,-2 -37,-11 -56,-12c-19,-1 -52,25 -73,43c-21,18 -78,51 -95,62c-17,11 -66,51 -82,45c-16,-6 -30,-4 -21,-22c9,-18 39,-60 39,-60c0,0 37,-49 41,-54c4,-5 15,-52 15,-53c0,-1 -6,-41 -7,-44c-1,-3 -48,-42 -50,-42c-2,0 16,16 16,16z" fill="#191919" id="svg_3" opacity="0.5" stroke="#000000"/>
 </g>
</svg>