<?xml version="1.0" standalone="no"?>
<!DOCTYPE svg PUBLIC "-//W3C//DTD SVG 20010904//EN"
 "http://www.w3.org/TR/2001/REC-SVG-20010904/DTD/svg10.dtd">
<svg version="1.0" xmlns="http://www.w3.org/2000/svg"
 width="1741.000000pt" height="1741.000000pt" viewBox="0 0 1741.000000 1741.000000"
 preserveAspectRatio="xMidYMid meet">
<metadata>
Created by potrace 1.14, written by Peter Selinger 2001-2017
</metadata>
<g transform="translate(0.000000,1741.000000) scale(0.100000,-0.100000)"
fill="#000000" stroke="none">
<path d="M8668 17406 c-1 -2 -111 -6 -243 -10 -132 -3 -253 -8 -270 -10 -16
-2 -77 -7 -135 -10 -57 -4 -113 -9 -125 -11 -11 -2 -54 -6 -95 -10 -41 -3 -84
-7 -95 -9 -11 -2 -50 -7 -87 -10 -37 -4 -77 -9 -90 -11 -13 -2 -59 -9 -103
-15 -44 -7 -87 -14 -96 -15 -9 -2 -34 -6 -55 -10 -70 -11 -98 -15 -199 -35
-143 -27 -447 -96 -535 -121 -41 -11 -82 -22 -90 -24 -65 -13 -651 -206 -755
-248 -56 -23 -76 -31 -150 -63 -16 -7 -66 -27 -110 -44 -108 -43 -434 -193
-520 -240 -38 -20 -119 -63 -180 -95 -60 -32 -139 -75 -174 -97 -34 -21 -65
-38 -67 -38 -10 0 -304 -183 -439 -273 -247 -165 -633 -457 -806 -609 -31 -27
-142 -125 -213 -188 -82 -72 -455 -447 -543 -545 -595 -664 -1009 -1268 -1382
-2015 -227 -455 -402 -891 -552 -1375 -75 -241 -166 -585 -205 -780 -2 -11 -6
-31 -9 -45 -11 -53 -15 -76 -20 -115 l-5 -40 10 35 c5 19 11 49 14 67 22 129
146 585 211 774 20 57 41 119 46 137 12 39 23 43 15 5 -4 -16 -8 -37 -10 -48
-8 -40 -27 -121 -33 -140 -3 -11 -3 -17 1 -14 3 3 49 122 102 265 135 363 140
375 195 504 28 63 66 152 86 198 20 45 37 81 40 79 2 -2 -5 -24 -16 -48 -19
-47 -30 -75 -32 -87 0 -4 -5 -13 -11 -19 -6 -7 -8 -13 -4 -13 3 0 -3 -24 -15
-52 -23 -60 -160 -438 -163 -453 -1 -5 -21 -68 -43 -140 -97 -306 -189 -658
-227 -870 -3 -16 -8 -41 -11 -55 -3 -14 -7 -36 -10 -50 -3 -14 -7 -36 -10 -50
-7 -35 -24 -129 -29 -165 -11 -71 -19 -121 -22 -140 -3 -11 -7 -40 -10 -65 -3
-25 -7 -56 -9 -70 -3 -14 -7 -50 -10 -80 -3 -30 -8 -66 -10 -80 -2 -14 -7 -63
-11 -110 -3 -47 -7 -101 -9 -120 -28 -260 -25 -866 4 -917 8 -14 9 -14 14 3 9
30 22 148 32 289 3 50 8 110 10 135 2 25 7 86 10 135 3 50 8 104 10 120 4 30
9 83 20 200 9 96 37 327 50 405 2 14 6 48 10 75 3 28 17 113 30 190 21 119 35
190 81 405 3 13 14 63 25 110 11 47 22 92 24 100 1 8 8 35 15 60 7 25 14 52
15 61 7 35 87 314 111 387 14 43 27 84 29 92 3 13 28 89 86 255 19 56 102 271
123 318 7 18 37 88 67 157 61 144 168 369 168 357 1 -5 -5 -23 -13 -40 -79
-175 -250 -626 -329 -872 -82 -253 -175 -582 -193 -682 -3 -15 -7 -30 -9 -33
-2 -4 -7 -22 -10 -41 -3 -19 -13 -61 -21 -94 -9 -33 -18 -69 -20 -80 -2 -11
-10 -54 -19 -95 -8 -41 -17 -87 -19 -103 -3 -15 -10 -54 -16 -87 -12 -63 -18
-99 -25 -140 -3 -14 -7 -36 -10 -50 -9 -44 -53 -413 -60 -495 -3 -44 -8 -91
-10 -105 -20 -120 -32 -724 -20 -970 2 -47 4 -107 4 -134 2 -97 13 -35 16 91
5 145 12 325 20 458 3 50 8 131 10 180 3 50 8 128 10 175 3 47 7 110 10 140 3
30 8 75 10 100 2 25 7 65 10 90 3 25 8 65 11 90 2 25 6 56 9 70 2 14 7 50 10
80 4 30 9 64 11 75 2 10 6 37 9 60 6 40 21 128 30 175 3 14 9 48 15 75 5 28
12 61 15 75 3 14 8 41 11 60 2 19 8 49 13 65 5 17 13 48 17 70 9 49 7 42 34
145 12 47 23 93 25 103 11 51 100 366 155 547 143 465 320 886 499 1190 31 52
99 178 150 280 151 297 205 383 500 790 201 277 214 295 267 355 24 28 80 95
124 150 45 55 98 120 118 144 20 24 49 60 65 80 15 20 40 41 54 47 14 6 109
94 212 195 173 171 330 319 426 400 22 19 46 39 53 46 7 7 34 29 60 50 26 21
49 40 52 43 3 3 30 25 60 50 30 25 57 47 60 51 19 22 406 302 545 394 211 140
532 335 551 335 2 0 22 11 43 24 68 43 413 213 581 286 429 187 891 347 1290
446 126 32 452 104 487 109 21 3 49 7 63 10 14 3 41 8 60 11 19 3 46 7 60 10
59 10 149 23 200 29 45 6 231 41 315 61 107 25 953 24 1150 -1 17 -3 80 -7
140 -10 61 -3 151 -8 200 -11 50 -3 118 -7 152 -9 34 -2 79 -8 100 -14 38 -10
69 -16 133 -27 19 -3 38 -8 41 -9 3 -2 28 -7 55 -11 27 -3 51 -8 54 -9 3 -2
26 -6 50 -10 187 -26 678 -144 938 -224 333 -103 744 -254 939 -346 52 -25 97
-45 100 -45 12 0 329 -163 473 -243 333 -185 799 -495 1095 -729 111 -88 401
-334 465 -395 97 -92 326 -323 365 -368 l26 -30 -15 39 -16 39 52 -49 c72 -65
93 -91 241 -283 451 -586 709 -970 967 -1436 59 -106 203 -396 265 -534 33
-73 64 -132 69 -131 26 5 219 -564 345 -1015 55 -197 154 -631 166 -724 2 -15
11 -64 19 -108 8 -44 18 -107 21 -139 4 -32 8 -61 10 -64 2 -3 7 -37 10 -75 4
-38 9 -78 11 -88 2 -10 6 -48 9 -85 4 -37 8 -78 10 -92 3 -14 7 -47 11 -75 3
-27 7 -59 9 -70 1 -11 5 -47 9 -80 4 -33 9 -80 13 -105 9 -64 11 -142 4 -160
-6 -16 -39 163 -40 217 -1 17 -6 35 -13 39 -6 4 -9 3 -5 -2 19 -31 32 -989 14
-1071 -4 -20 -3 -33 3 -33 6 0 10 27 10 60 0 33 4 60 9 60 5 0 8 -19 6 -42 -2
-24 -6 -86 -10 -138 -3 -52 -8 -111 -10 -130 -1 -19 -6 -71 -10 -115 -4 -44
-9 -91 -10 -105 -2 -14 -6 -52 -10 -85 -3 -33 -8 -71 -11 -85 -2 -14 -7 -50
-10 -80 -8 -65 -18 -84 -12 -22 2 23 0 42 -4 42 -5 0 -8 -12 -9 -27 -1 -33 -4
-51 -29 -198 -11 -60 -18 -111 -16 -113 2 -2 11 31 21 73 9 42 19 74 21 72 4
-4 -60 -336 -92 -482 -2 -11 -7 -33 -10 -50 -13 -74 -109 -433 -158 -593 -67
-216 -223 -674 -260 -760 -15 -34 -39 -91 -55 -125 -16 -34 -38 -84 -50 -112
-27 -59 -181 -367 -224 -445 -177 -322 -280 -495 -400 -675 -33 -49 -79 -117
-101 -150 -52 -80 -286 -396 -335 -455 -11 -14 -24 -29 -28 -35 -54 -69 -209
-254 -252 -300 -88 -95 -261 -283 -313 -339 -78 -86 -43 -71 92 38 139 112
274 238 533 498 141 142 257 256 257 252 0 -14 -94 -171 -158 -264 -225 -328
-585 -720 -962 -1046 -25 -21 -47 -41 -50 -44 -3 -3 -34 -30 -70 -60 -36 -30
-67 -57 -70 -60 -12 -13 -294 -233 -404 -315 -273 -204 -709 -479 -1004 -634
-13 -7 -21 -15 -19 -18 5 -4 168 71 342 157 59 30 59 30 30 5 -28 -24 -83 -61
-232 -155 -34 -21 -64 -36 -67 -33 -3 4 -6 1 -6 -5 0 -11 -38 -28 -53 -24 -5
1 -6 -2 -3 -7 7 -11 -22 -23 -35 -15 -5 3 -8 0 -7 -6 2 -6 -31 -29 -72 -51
-113 -61 -366 -190 -440 -224 -192 -87 -219 -105 -80 -52 584 226 1172 539
1695 902 159 111 299 212 340 246 11 9 72 58 135 109 436 348 897 816 1282
1300 284 357 520 711 748 1120 119 213 312 605 370 750 10 25 32 76 49 114 18
38 30 70 28 72 -2 3 -26 -44 -52 -103 -99 -222 -252 -528 -360 -718 -112 -198
-368 -605 -380 -605 -3 0 19 37 49 83 87 133 122 190 144 227 11 19 50 87 87
150 37 63 85 148 108 190 48 88 257 506 257 514 0 3 18 44 40 91 22 47 40 88
40 91 0 2 9 23 19 47 165 358 414 1150 487 1547 3 14 11 52 19 85 21 93 55
287 80 455 7 47 13 69 14 50 1 -30 -63 -442 -85 -545 -4 -16 -3 -27 0 -24 6 6
54 260 72 377 3 20 7 47 9 59 3 19 17 115 31 213 9 66 22 183 29 265 3 33 7
76 10 95 4 38 10 117 22 300 15 228 8 869 -12 1080 -1 19 -6 77 -10 128 -3 51
-8 107 -11 125 -2 18 -6 55 -9 82 -14 121 -17 144 -26 205 -5 36 -8 74 -8 85
1 23 14 -36 24 -109 4 -27 9 -58 11 -70 2 -11 6 -38 9 -61 3 -22 8 -51 10 -65
9 -49 25 -197 41 -375 3 -38 7 -86 9 -105 9 -92 18 -356 19 -547 1 -118 5
-213 10 -213 8 0 1 661 -8 765 -2 22 -7 92 -10 155 -4 63 -9 131 -10 150 -2
19 -7 76 -11 125 -4 50 -9 97 -10 106 -2 8 -6 49 -10 90 -11 114 -12 119 -24
204 -7 44 -14 91 -16 105 -2 14 -9 60 -15 103 -6 43 -9 81 -7 83 3 3 9 -19 13
-48 4 -29 8 -55 9 -58 1 -3 5 -32 10 -65 5 -33 10 -62 10 -65 1 -3 5 -26 9
-52 5 -27 13 -48 18 -48 6 0 7 11 3 28 -9 34 -12 55 -30 177 -3 22 -8 51 -11
65 -2 14 -7 39 -9 55 -19 109 -103 501 -126 579 -6 21 -12 46 -14 55 -6 32
-46 177 -71 260 -14 45 -23 85 -21 87 15 15 205 -719 243 -936 2 -14 7 -41 11
-60 10 -56 11 -63 19 -110 4 -25 8 -49 10 -55 3 -16 32 -216 39 -274 4 -30 8
-61 10 -70 1 -9 6 -52 10 -96 4 -44 9 -88 11 -99 3 -17 9 -86 19 -211 16 -200
24 -656 13 -649 -5 3 -8 -2 -8 -11 0 -10 5 -14 13 -9 10 6 10 4 0 -7 -7 -7
-13 -17 -13 -22 0 -4 6 -5 13 -1 8 5 8 2 -2 -9 -7 -9 -10 -17 -7 -17 4 0 2 -9
-4 -20 -6 -11 -7 -20 -2 -20 5 0 8 -10 6 -22 -1 -13 -3 -23 -4 -23 -1 0 -3
-12 -4 -27 -2 -16 1 -28 6 -28 5 0 6 -6 1 -12 -4 -7 -8 -29 -9 -48 -15 -336
-17 -379 -29 -500 -3 -30 -8 -80 -11 -110 -6 -61 -43 -361 -49 -400 -2 -14
-11 -70 -20 -125 -9 -55 -18 -111 -21 -125 -3 -14 -7 -38 -10 -55 -3 -16 -14
-73 -25 -125 -11 -52 -27 -128 -34 -168 -18 -88 -84 -353 -120 -477 -48 -166
-107 -360 -115 -380 -5 -11 -13 -36 -19 -55 -30 -112 -230 -621 -323 -825
-236 -515 -582 -1103 -915 -1549 -36 -49 -61 -86 -55 -82 14 8 257 333 331
442 89 131 211 324 256 404 153 275 200 362 266 495 81 162 184 392 250 557
143 357 317 880 405 1216 9 34 19 61 21 58 14 -14 -176 -669 -263 -911 -87
-239 -173 -455 -234 -590 -174 -381 -252 -533 -428 -840 -143 -248 -430 -682
-552 -835 -11 -14 -51 -65 -88 -115 -316 -414 -829 -948 -1226 -1276 -16 -13
-46 -38 -65 -55 -54 -46 -304 -241 -404 -314 -556 -406 -1082 -702 -1742 -980
-88 -37 -171 -70 -185 -75 -14 -4 -38 -13 -55 -21 -72 -32 -338 -122 -585
-198 -129 -39 -463 -126 -585 -151 -44 -9 -87 -18 -95 -20 -60 -14 -162 -34
-195 -39 -22 -4 -76 -13 -120 -21 -119 -21 -128 -23 -191 -30 -33 -4 -66 -9
-76 -11 -9 -1 -38 -6 -65 -10 -26 -3 -56 -8 -65 -10 -9 -1 -48 -5 -85 -9 -37
-3 -81 -8 -98 -10 -58 -8 -196 -19 -415 -32 -248 -14 -866 -8 -1060 12 -19 2
-78 6 -130 9 -52 4 -108 8 -125 11 -16 3 -52 7 -80 9 -27 3 -102 12 -165 20
-120 17 -184 19 -115 6 22 -5 67 -11 100 -15 57 -7 68 -9 125 -20 59 -11 261
-34 361 -40 48 -3 97 -8 110 -10 139 -27 1115 -27 1339 0 19 2 69 7 110 10 41
3 86 8 100 10 14 2 55 7 92 10 37 3 77 8 90 10 13 2 45 6 71 10 27 4 58 8 70
11 11 2 43 6 71 9 28 3 58 8 66 10 16 5 49 10 115 20 23 3 52 7 65 10 13 3 42
7 65 10 22 4 56 10 75 15 19 5 49 12 65 14 34 7 29 5 190 40 66 15 162 38 213
51 52 14 98 23 103 19 5 -3 9 0 9 7 0 7 8 9 21 6 12 -3 18 -3 15 0 -6 6 157
57 209 66 11 2 27 6 35 10 8 3 92 30 185 61 94 30 260 91 369 135 109 44 195
76 190 71 -31 -30 -719 -287 -898 -335 -28 -7 -112 -31 -186 -53 -156 -46
-488 -129 -590 -148 -14 -2 -36 -7 -50 -10 -14 -3 -36 -8 -50 -10 -14 -2 -36
-7 -50 -10 -14 -3 -36 -8 -50 -10 -14 -2 -45 -8 -70 -14 -55 -11 -237 -40
-350 -55 -34 -5 -111 -17 -134 -21 -10 -2 -53 -6 -94 -10 -42 -3 -83 -7 -91
-9 -9 -1 -54 -6 -101 -9 -47 -4 -96 -9 -110 -11 -26 -5 -109 -11 -243 -20 -85
-5 -179 -15 -210 -21 -27 -5 -46 -24 -26 -25 7 -1 23 -3 34 -5 154 -24 659
-19 860 10 22 3 65 8 95 11 77 9 270 34 300 40 14 2 70 11 125 21 151 25 138
22 325 60 69 14 143 30 165 36 22 5 48 12 58 14 10 2 27 6 37 9 10 3 27 8 37
10 120 24 441 117 698 202 774 255 1606 681 2270 1162 201 146 598 458 635
500 3 3 46 42 95 86 280 248 563 540 849 875 225 264 523 676 731 1010 68 109
95 156 175 295 257 450 535 1085 670 1530 93 307 110 367 158 560 52 204 127
555 137 634 3 24 7 47 9 50 3 3 7 31 10 61 6 56 10 78 26 165 10 56 17 112 25
200 3 33 8 67 10 75 2 8 7 49 10 90 3 41 8 82 10 90 2 8 7 58 10 110 4 52 8
111 10 130 22 233 22 999 0 1220 -2 19 -7 82 -10 140 -4 58 -9 112 -10 121 -2
9 -6 52 -10 95 -4 43 -9 87 -10 96 -2 9 -7 48 -10 85 -4 37 -9 75 -10 83 -5
27 -14 94 -20 140 -31 241 -118 690 -186 957 -22 87 -44 174 -49 193 -92 383
-376 1125 -559 1464 -21 39 -59 109 -84 156 -24 47 -75 137 -112 200 -37 63
-75 129 -85 145 -114 198 -382 587 -578 840 -88 113 -310 383 -347 421 -11 12
-47 52 -80 90 -198 227 -472 496 -771 760 -291 257 -778 617 -1099 814 -189
116 -296 180 -299 180 -2 0 -48 25 -102 56 -315 178 -763 388 -1110 520 -213
80 -634 218 -794 260 -8 2 -74 19 -147 39 -72 19 -142 36 -155 39 -12 2 -72
15 -133 29 -121 28 -194 42 -455 86 -233 40 -228 39 -472 66 -24 2 -68 7 -98
9 -111 11 -176 17 -215 21 -22 3 -152 7 -290 10 -137 4 -255 8 -262 10 -6 2
-13 2 -15 1z m1192 -182 c36 -2 92 -11 125 -19 33 -8 78 -17 100 -20 47 -7
183 -33 360 -70 347 -72 836 -222 1072 -330 29 -14 56 -25 58 -25 14 0 381
-163 555 -246 946 -454 1837 -1098 2433 -1759 71 -78 43 -73 -36 7 -40 40 -76
71 -80 70 -5 -1 -6 1 -3 6 6 11 -30 43 -39 34 -4 -4 -5 0 -3 8 2 9 -3 14 -12
12 -8 -2 -12 0 -8 4 8 8 -68 84 -217 219 -49 44 -93 85 -99 90 -6 6 -47 41
-91 79 -44 38 -91 78 -105 90 -85 73 -411 320 -564 428 -252 177 -465 309
-836 517 -76 43 -370 187 -518 255 -405 184 -1023 400 -1382 481 -219 50 -407
90 -535 114 -175 33 -215 40 -335 56 -84 11 -75 17 15 10 44 -3 109 -8 145
-11z m5015 -2824 c10 -11 16 -20 13 -20 -3 0 -13 9 -23 20 -10 11 -16 20 -13
20 3 0 13 -9 23 -20z m90 -109 c-3 -2 -6 -2 -7 0 -2 2 -19 22 -38 44 l-35 40
42 -39 c24 -22 40 -42 38 -45z m143 -164 c157 -188 307 -388 435 -582 22 -33
48 -71 57 -85 34 -50 150 -241 193 -317 45 -79 58 -102 117 -208 40 -72 205
-401 250 -500 177 -387 291 -688 415 -1095 71 -236 165 -601 189 -744 3 -16
10 -52 16 -80 16 -80 19 -97 30 -161 5 -33 12 -69 14 -80 2 -11 7 -42 10 -70
4 -27 9 -57 11 -65 2 -8 7 -35 10 -60 8 -68 14 -118 24 -195 6 -38 13 -99 16
-135 4 -36 8 -78 10 -95 2 -16 6 -73 10 -125 4 -52 8 -105 10 -118 2 -12 0
-20 -4 -18 -4 3 -11 49 -14 103 -4 54 -9 112 -11 128 -2 17 -7 64 -11 105 -3
41 -8 82 -10 90 -2 8 -7 38 -10 65 -8 75 -34 249 -51 345 -8 47 -19 108 -24
135 -5 28 -23 115 -40 195 -17 80 -33 152 -35 161 -13 64 -113 435 -141 529
-167 547 -340 977 -585 1455 -42 83 -104 199 -138 259 -34 60 -61 111 -61 112
0 1 -49 84 -110 184 -60 99 -105 178 -99 174 7 -4 10 -1 7 7 -3 8 -10 14 -16
14 -5 0 -14 4 -19 9 -5 5 -3 6 5 2 30 -18 16 6 -158 254 -97 138 -263 357
-354 465 -76 92 -82 99 -69 91 6 -3 65 -70 131 -149z m1519 -2559 c-3 -8 -6
-5 -6 6 -1 11 2 17 5 13 3 -3 4 -12 1 -19z m22 -58 c0 -10 -3 -8 -9 5 -12 27
-12 43 0 25 5 -8 9 -22 9 -30z m20 -60 c0 -10 -3 -8 -9 5 -12 27 -12 43 0 25
5 -8 9 -22 9 -30z m218 -1002 c-3 -7 -5 -2 -5 12 0 14 2 19 5 13 2 -7 2 -19 0
-25z m43 -1122 c0 -30 3 -63 7 -73 3 -10 2 -15 -3 -10 -11 11 -22 137 -12 137
5 0 8 -24 8 -54z m7 -158 c-3 -7 -5 -2 -5 12 0 14 2 19 5 13 2 -7 2 -19 0 -25z
m-400 -40 c-3 -8 -6 -5 -6 6 -1 11 2 17 5 13 3 -3 4 -12 1 -19z m400 0 c-3 -8
-6 -5 -6 6 -1 11 2 17 5 13 3 -3 4 -12 1 -19z m-398 -368 c-1 -44 -5 -83 -10
-85 -4 -3 -6 3 -4 12 2 10 4 48 4 86 1 37 3 67 7 67 3 0 4 -36 3 -80z m-9
-195 c0 -52 -4 -95 -9 -95 -5 0 -8 12 -6 28 2 15 4 57 4 95 1 37 3 67 6 67 3
0 5 -43 5 -95z m377 -617 c-3 -8 -6 -5 -6 6 -1 11 2 17 5 13 3 -3 4 -12 1 -19z
m-20 -150 c-3 -7 -5 -2 -5 12 0 14 2 19 5 13 2 -7 2 -19 0 -25z m3 -48 c0 -5
-5 -10 -11 -10 -5 0 -7 5 -4 10 3 6 8 10 11 10 2 0 4 -4 4 -10z m-13 -57 c-3
-10 -5 -4 -5 12 0 17 2 24 5 18 2 -7 2 -21 0 -30z m259 -275 c-3 -13 -8 -45
-11 -73 -4 -27 -8 -63 -11 -80 -2 -16 -6 -52 -9 -80 -3 -27 -8 -59 -10 -70 -3
-11 -7 -31 -9 -45 -18 -96 -46 -232 -50 -238 -2 -4 -7 -23 -10 -42 -17 -106
-148 -523 -248 -790 -80 -214 -100 -262 -105 -256 -2 2 3 19 11 37 66 147 263
784 311 1004 2 11 22 101 44 200 22 99 43 197 47 219 5 35 8 50 19 96 6 29 19
125 17 133 -1 4 3 7 8 7 6 0 8 -10 6 -22z m-643 -2133 c-3 -9 -8 -14 -10 -11
-3 3 -2 9 2 15 9 16 15 13 8 -4z m-22 -47 c-41 -103 -304 -647 -331 -683 -4
-5 -21 -35 -37 -65 -312 -577 -723 -1148 -1212 -1685 -81 -89 -464 -468 -535
-530 -38 -33 -74 -64 -80 -70 -115 -104 -574 -467 -624 -494 -12 -7 -20 -17
-16 -23 4 -7 2 -8 -5 -4 -7 5 -22 -3 -36 -18 -14 -15 -27 -27 -30 -27 -2 0
-72 -43 -154 -97 -251 -163 -310 -200 -466 -288 -161 -91 -385 -208 -385 -200
0 2 46 29 103 59 56 30 162 91 236 136 73 44 135 81 137 81 5 0 297 201 365
252 35 26 116 84 179 129 101 72 355 265 386 294 7 5 22 19 35 29 67 55 300
255 337 290 296 277 525 511 712 726 36 41 67 77 70 80 4 4 59 70 122 145 333
401 706 959 963 1440 50 94 215 423 215 429 0 8 52 116 55 116 3 0 1 -10 -4
-22z m-4426 -4408 c-3 -5 -12 -10 -18 -10 -7 0 -6 4 3 10 19 12 23 12 15 0z"/>
<path d="M15610 13394 c12 -23 33 -55 47 -70 15 -18 11 -7 -12 31 -44 71 -67
97 -35 39z"/>
<path d="M7905 14570 c-40 -9 -84 -33 -117 -64 -56 -53 -87 -129 -147 -356
-32 -120 -123 -474 -126 -490 -2 -8 -20 -78 -40 -155 -20 -77 -38 -150 -40
-161 -3 -12 -37 -147 -76 -300 -39 -154 -75 -297 -80 -319 -4 -22 -60 -247
-123 -500 -125 -500 -279 -1125 -321 -1300 -15 -60 -28 -117 -30 -125 -2 -8
-40 -166 -85 -350 -45 -184 -83 -342 -85 -350 -12 -51 -93 -387 -135 -560 -70
-288 -171 -708 -214 -885 -35 -150 -82 -347 -130 -545 -14 -58 -56 -233 -95
-390 -61 -247 -81 -332 -96 -400 -3 -14 -14 -58 -75 -315 -23 -95 -88 -384
-124 -545 -14 -63 -35 -158 -46 -210 -12 -52 -24 -108 -27 -125 -3 -16 -16
-79 -29 -139 -13 -60 -24 -110 -24 -111 0 0 -42 -35 -92 -76 -51 -40 -104 -84
-118 -95 -264 -224 -339 -293 -535 -489 -568 -569 -915 -1133 -971 -1575 -52
-415 195 -718 731 -899 83 -28 165 -53 184 -56 19 -3 38 -8 42 -11 17 -10 306
-60 409 -70 281 -27 836 -26 1035 1 17 2 64 7 106 10 42 3 85 7 95 9 11 2 46
7 79 11 32 3 62 8 65 10 3 2 30 6 61 9 31 3 80 11 110 16 30 6 68 13 84 15 64
11 193 37 245 50 30 8 69 16 86 19 59 11 241 55 370 91 71 20 134 37 139 39
40 10 219 67 370 117 406 136 701 261 1175 495 526 260 944 517 1394 857 63
47 204 163 265 216 35 31 87 76 115 101 74 64 360 352 443 445 273 306 521
677 683 1019 139 294 249 632 290 896 6 41 13 86 16 100 26 163 26 591 -1 730
-2 14 -7 42 -9 64 -3 21 -8 46 -10 55 -3 9 -7 27 -10 41 -26 149 -123 414
-211 576 l-33 62 222 65 c381 113 767 215 961 253 29 5 95 36 95 44 0 20 -43
40 -105 50 -61 10 -285 7 -304 -4 -3 -2 -35 -6 -71 -10 -36 -4 -99 -13 -140
-21 -41 -8 -88 -17 -105 -20 -193 -34 -516 -96 -625 -120 -78 -18 -72 -20
-119 39 -145 183 -410 386 -656 501 -206 96 -523 193 -725 221 -19 2 -44 6
-55 9 -11 2 -47 6 -80 10 -33 3 -69 8 -80 10 -11 2 -58 6 -105 10 -47 3 -110
8 -140 10 -30 2 -93 7 -140 10 -47 3 -103 8 -125 10 -22 3 -65 7 -95 10 -48 6
-108 15 -200 32 -144 25 -250 77 -278 134 -56 113 16 198 389 463 642 456
1129 826 1397 1061 534 468 825 891 917 1330 34 159 42 398 19 545 -64 420
-350 744 -747 845 -79 20 -112 23 -232 20 -289 -6 -557 -99 -847 -294 -178
-120 -300 -223 -504 -426 -420 -417 -836 -955 -1408 -1823 -244 -370 -425
-666 -693 -1132 -96 -166 -339 -606 -428 -775 -26 -49 -56 -103 -65 -120 -10
-16 -50 -93 -90 -170 -40 -77 -95 -181 -121 -231 -117 -223 -393 -781 -511
-1034 -54 -116 -55 -114 -9 81 17 75 33 145 36 155 2 11 25 107 50 214 26 107
48 202 50 210 2 8 15 62 29 120 52 217 98 406 101 420 8 39 70 297 97 405 16
66 32 129 34 140 2 11 10 47 18 80 28 113 108 440 111 455 15 69 118 489 217
885 66 264 121 487 123 495 2 8 31 125 65 260 34 134 63 251 65 260 5 23 156
603 226 865 65 249 180 663 209 760 10 33 30 101 45 150 15 50 44 145 66 212
45 142 48 181 17 218 -26 29 -49 35 -93 25z m3398 -705 c310 -77 510 -355 508
-705 -1 -52 -3 -108 -5 -125 -32 -252 -120 -474 -292 -735 -187 -285 -465
-576 -909 -950 -55 -47 -105 -89 -111 -95 -22 -20 -451 -365 -564 -454 -63
-50 -119 -94 -125 -98 -706 -555 -803 -678 -703 -893 33 -73 85 -123 166 -164
78 -39 210 -77 317 -91 22 -3 51 -8 65 -10 14 -2 54 -7 90 -11 36 -3 81 -8
100 -10 19 -2 87 -6 150 -9 63 -3 140 -8 170 -10 76 -7 162 -17 180 -20 9 -2
43 -6 75 -10 33 -4 69 -9 80 -11 140 -26 197 -39 295 -65 305 -81 531 -183
740 -334 107 -76 126 -93 217 -184 41 -41 71 -77 66 -82 -4 -4 -20 -10 -35
-13 -115 -20 -775 -225 -1138 -353 -161 -56 -196 -69 -420 -151 -310 -115
-963 -382 -1223 -501 -37 -17 -70 -31 -72 -31 -3 0 -43 -18 -90 -40 -47 -22
-87 -40 -89 -40 -4 0 -107 -47 -246 -112 -47 -22 -134 -63 -195 -91 -143 -67
-763 -377 -930 -465 -382 -202 -987 -572 -1268 -775 -37 -27 -69 -48 -71 -46
-2 2 53 202 121 444 68 242 126 447 128 455 9 35 56 184 98 310 328 989 804
1961 1549 3170 130 212 227 366 566 900 107 169 290 444 365 551 222 314 481
651 623 809 274 307 462 494 618 615 21 17 44 35 50 40 29 26 159 118 232 163
221 137 431 217 624 238 30 4 56 7 57 8 10 8 186 -6 236 -19z m745 -5398 c88
-177 157 -383 178 -527 3 -19 7 -46 9 -60 19 -103 24 -363 11 -520 -47 -572
-336 -1240 -785 -1815 -47 -60 -90 -115 -96 -121 -5 -6 -30 -35 -55 -64 -90
-108 -138 -158 -300 -320 -244 -245 -429 -404 -695 -601 -119 -88 -380 -266
-465 -317 -459 -274 -738 -416 -1165 -592 -515 -212 -963 -343 -1670 -486 -27
-6 -62 -12 -110 -19 -22 -3 -83 -12 -135 -21 -92 -15 -111 -17 -230 -29 -30
-3 -66 -8 -80 -10 -247 -44 -996 -56 -1275 -20 -16 2 -57 6 -90 10 -53 5 -98
12 -202 31 -16 3 -46 10 -68 16 -22 5 -50 12 -63 14 -12 3 -62 18 -111 34
-286 96 -434 222 -472 401 -11 50 -7 211 6 278 24 122 119 346 207 488 192
310 377 533 723 873 145 143 157 154 264 248 35 32 80 72 100 90 20 18 44 38
54 43 15 9 17 7 12 -13 -2 -13 -7 -34 -9 -48 -2 -14 -11 -59 -20 -100 -8 -41
-33 -176 -56 -300 -22 -124 -42 -234 -44 -245 -2 -11 -7 -42 -10 -68 -4 -27
-9 -59 -12 -70 -2 -12 -7 -42 -9 -67 -3 -25 -8 -52 -10 -60 -2 -8 -7 -37 -10
-65 -3 -27 -7 -59 -9 -70 -9 -49 -19 -186 -18 -249 2 -76 18 -111 59 -127 28
-10 87 13 130 53 26 24 59 91 66 133 3 17 17 82 30 145 14 63 28 129 31 145 2
17 10 55 16 85 12 59 18 87 24 123 2 12 7 33 10 47 3 14 8 36 10 50 15 90 200
928 222 1001 6 22 108 95 469 338 553 371 1226 742 1905 1049 272 123 769 339
935 407 77 31 154 63 170 70 112 49 724 289 905 355 41 15 161 59 265 98 285
106 694 248 1030 357 165 53 316 103 335 110 21 8 39 9 46 4 6 -5 29 -46 52
-92z"/>
<path d="M308 10267 c-3 -19 -2 -25 4 -19 6 6 8 18 6 28 -3 14 -5 12 -10 -9z"/>
<path d="M301 10214 c0 -11 3 -14 6 -6 3 7 2 16 -1 19 -3 4 -6 -2 -5 -13z"/>
<path d="M291 10174 c0 -11 3 -14 6 -6 3 7 2 16 -1 19 -3 4 -6 -2 -5 -13z"/>
<path d="M284 10135 c-3 -8 -4 -20 -2 -27 3 -7 7 -1 10 15 6 29 1 36 -8 12z"/>
<path d="M16954 10063 c5 -19 9 -47 26 -188 6 -49 13 -103 15 -120 3 -16 8
-63 11 -103 4 -40 11 -75 15 -78 4 -2 6 3 5 13 -2 10 -7 54 -10 98 -4 44 -9
91 -11 105 -2 14 -6 45 -9 70 -3 25 -8 68 -12 95 -9 65 -11 86 -13 108 0 9 -6
17 -12 17 -6 0 -8 -8 -5 -17z"/>
<path d="M272 10050 c0 -14 2 -19 5 -12 2 6 2 18 0 25 -3 6 -5 1 -5 -13z"/>
<path d="M17018 9510 c2 -27 7 -50 10 -50 4 0 5 22 4 50 -2 27 -7 50 -10 50
-4 0 -5 -22 -4 -50z"/>
<path d="M17028 9415 c2 -14 6 -25 8 -25 2 0 4 11 4 25 0 14 -4 25 -9 25 -4 0
-6 -11 -3 -25z"/>
<path d="M17031 9364 c0 -11 3 -14 6 -6 3 7 2 16 -1 19 -3 4 -6 -2 -5 -13z"/>
<path d="M182 9325 c0 -16 2 -22 5 -12 2 9 2 23 0 30 -3 6 -5 -1 -5 -18z"/>
<path d="M17033 9322 c2 -12 6 -24 10 -28 3 -4 4 4 2 16 -6 30 -16 40 -12 12z"/>
<path d="M17041 9264 c0 -11 3 -14 6 -6 3 7 2 16 -1 19 -3 4 -6 -2 -5 -13z"/>
<path d="M171 9214 c0 -11 3 -14 6 -6 3 7 2 16 -1 19 -3 4 -6 -2 -5 -13z"/>
<path d="M171 9174 c0 -11 3 -14 6 -6 3 7 2 16 -1 19 -3 4 -6 -2 -5 -13z"/>
<path d="M162 9050 c0 -19 2 -27 5 -17 2 9 2 25 0 35 -3 9 -5 1 -5 -18z"/>
<path d="M153 8765 c0 -38 2 -53 4 -32 2 20 2 52 0 70 -2 17 -4 1 -4 -38z"/>
<path d="M151 8674 c0 -11 3 -14 6 -6 3 7 2 16 -1 19 -3 4 -6 -2 -5 -13z"/>
<path d="M151 8614 c0 -11 3 -14 6 -6 3 7 2 16 -1 19 -3 4 -6 -2 -5 -13z"/>
<path d="M17003 8505 c0 -14 3 -25 6 -25 4 0 7 11 7 25 0 14 -3 25 -7 25 -3 0
-6 -11 -6 -25z"/>
<path d="M146 8487 c3 -10 9 -15 12 -12 3 3 0 11 -7 18 -10 9 -11 8 -5 -6z"/>
<path d="M17000 8390 c0 -46 2 -81 4 -79 7 7 10 149 3 156 -4 3 -7 -31 -7 -77z"/>
<path d="M513 8335 c0 -8 4 -12 9 -9 5 3 6 10 3 15 -9 13 -12 11 -12 -6z"/>
<path d="M16493 8315 c0 -8 4 -12 9 -9 4 3 8 9 8 15 0 5 -4 9 -8 9 -5 0 -9 -7
-9 -15z"/>
<path d="M16995 8291 c-3 -5 -2 -12 3 -15 5 -3 9 1 9 9 0 17 -3 19 -12 6z"/>
<path d="M16488 8238 c-3 -29 -2 -56 1 -60 4 -4 8 20 9 52 4 74 -5 80 -10 8z"/>
<path d="M16992 8188 c-1 -40 1 -68 3 -63 7 19 11 135 5 135 -4 0 -7 -33 -8
-72z"/>
<path d="M16482 8130 c0 -19 2 -27 5 -17 2 9 2 25 0 35 -3 9 -5 1 -5 -18z"/>
<path d="M16982 8055 c0 -16 2 -22 5 -12 2 9 2 23 0 30 -3 6 -5 -1 -5 -18z"/>
<path d="M16975 7979 c-4 -6 -5 -12 -2 -15 2 -3 7 2 10 11 7 17 1 20 -8 4z"/>
<path d="M16961 7864 c0 -11 3 -14 6 -6 3 7 2 16 -1 19 -3 4 -6 -2 -5 -13z"/>
<path d="M16450 7833 c0 -10 -3 -43 -6 -73 -4 -30 -4 -53 -1 -50 8 7 20 140
13 140 -3 0 -6 -8 -6 -17z"/>
<path d="M16772 7040 c0 -14 2 -19 5 -12 2 6 2 18 0 25 -3 6 -5 1 -5 -13z"/>
<path d="M16761 6994 c0 -11 3 -14 6 -6 3 7 2 16 -1 19 -3 4 -6 -2 -5 -13z"/>
<path d="M16752 6940 c0 -14 2 -19 5 -12 2 6 2 18 0 25 -3 6 -5 1 -5 -13z"/>
<path d="M16737 6891 c-4 -17 -3 -21 5 -13 5 5 8 16 6 23 -3 8 -7 3 -11 -10z"/>
<path d="M16731 6844 c0 -11 3 -14 6 -6 3 7 2 16 -1 19 -3 4 -6 -2 -5 -13z"/>
<path d="M16702 6730 c0 -14 2 -19 5 -12 2 6 2 18 0 25 -3 6 -5 1 -5 -13z"/>
<path d="M16691 6684 c0 -11 3 -14 6 -6 3 7 2 16 -1 19 -3 4 -6 -2 -5 -13z"/>
<path d="M16681 6644 c0 -11 3 -14 6 -6 3 7 2 16 -1 19 -3 4 -6 -2 -5 -13z"/>
<path d="M16343 5625 c-3 -9 -3 -18 -1 -21 3 -3 8 4 11 16 6 23 -1 27 -10 5z"/>
<path d="M16323 5575 c-3 -9 -3 -18 -1 -21 3 -3 8 4 11 16 6 23 -1 27 -10 5z"/>
<path d="M876 5357 c3 -10 9 -15 12 -12 3 3 0 11 -7 18 -10 9 -11 8 -5 -6z"/>
<path d="M900 5302 c0 -7 4 -20 10 -30 15 -26 90 -192 90 -198 0 -13 193 -398
260 -519 243 -438 552 -894 869 -1285 121 -149 137 -167 315 -360 352 -382
772 -764 1151 -1046 162 -120 555 -386 640 -433 17 -9 48 -28 70 -42 22 -14
65 -39 95 -56 30 -16 86 -48 124 -71 37 -23 70 -42 73 -42 2 0 45 -23 95 -50
50 -28 93 -49 94 -47 2 2 -40 28 -94 57 -386 214 -745 453 -1147 765 -99 78
-328 268 -379 317 -8 7 -52 47 -99 88 -244 214 -687 684 -939 995 -208 258
-501 673 -647 920 -30 50 -82 133 -116 185 -110 166 -155 248 -312 560 -84
167 -153 299 -153 292z"/>
<path d="M14360 3303 c-92 -105 -445 -450 -575 -563 -61 -52 -112 -97 -115
-100 -3 -3 -60 -50 -127 -104 -68 -54 -123 -100 -123 -102 0 -5 118 79 285
204 142 106 201 162 419 397 67 71 130 139 141 151 11 11 38 41 59 65 22 24
55 61 74 81 20 21 34 39 31 41 -2 2 -33 -29 -69 -70z"/>
<path d="M3590 2255 c13 -14 26 -25 28 -25 3 0 -5 11 -18 25 -13 14 -26 25
-28 25 -3 0 5 -11 18 -25z"/>
<path d="M3630 2227 c0 -14 324 -263 540 -415 481 -340 1163 -700 1645 -869
39 -13 79 -28 90 -33 86 -39 662 -214 805 -244 41 -9 82 -18 90 -21 122 -31
360 -79 366 -73 3 4 -89 25 -196 44 -130 24 -615 163 -850 243 -499 171 -849
328 -1385 622 -300 164 -710 439 -1032 693 -40 31 -73 55 -73 53z"/>
<path d="M4869 1841 c13 -12 28 -21 34 -21 12 0 11 0 -28 24 l-30 17 24 -20z"/>
<path d="M4932 1804 c10 -10 20 -16 22 -13 3 3 -5 11 -17 18 -21 13 -21 12 -5
-5z"/>
<path d="M4984 1775 c29 -22 336 -177 344 -173 4 2 -76 45 -178 95 -102 51
-177 86 -166 78z"/>
<path d="M11445 1329 c-38 -16 -152 -57 -252 -91 -196 -65 -241 -87 -78 -37
55 17 124 38 154 46 95 26 271 95 265 104 -7 12 -9 12 -89 -22z"/>
<path d="M12260 1320 c-9 -6 -10 -10 -3 -10 6 0 15 5 18 10 8 12 4 12 -15 0z"/>
<path d="M5100 1190 c8 -5 20 -10 25 -10 6 0 3 5 -5 10 -8 5 -19 10 -25 10 -5
0 -3 -5 5 -10z"/>
<path d="M10950 1160 c-9 -6 -10 -10 -3 -10 6 0 15 5 18 10 8 12 4 12 -15 0z"/>
<path d="M4800 1116 c0 -3 14 -12 30 -21 17 -9 30 -13 30 -11 0 3 -13 12 -30
21 -16 9 -30 13 -30 11z"/>
<path d="M4870 1076 c0 -2 7 -7 16 -10 8 -3 12 -2 9 4 -6 10 -25 14 -25 6z"/>
<path d="M11825 1050 c-3 -6 1 -7 9 -4 18 7 21 14 7 14 -6 0 -13 -4 -16 -10z"/>
<path d="M5544 986 c11 -9 24 -16 30 -16 12 0 7 5 -24 19 -24 11 -24 11 -6 -3z"/>
<path d="M5260 886 c0 -2 7 -7 16 -10 8 -3 12 -2 9 4 -6 10 -25 14 -25 6z"/>
<path d="M5332 849 c91 -52 601 -265 798 -332 104 -35 401 -123 443 -131 157
-30 204 -39 217 -42 108 -24 159 -33 180 -33 20 1 21 2 5 6 -209 45 -658 166
-810 218 -321 110 -602 218 -793 305 -45 21 -69 26 -40 9z"/>
<path d="M8630 830 c0 -5 5 -10 10 -10 6 0 10 5 10 10 0 6 -4 10 -10 10 -5 0
-10 -4 -10 -10z"/>
<path d="M8673 828 c-12 -4 -2 -7 27 -9 86 -4 210 2 210 10 0 9 -216 8 -237
-1z"/>
<path d="M8926 831 c-3 -4 6 -6 19 -3 14 2 25 6 25 8 0 8 -39 4 -44 -5z"/>
<path d="M8998 833 c6 -2 18 -2 25 0 6 3 1 5 -13 5 -14 0 -19 -2 -12 -5z"/>
<path d="M10868 593 c7 -3 16 -2 19 1 4 3 -2 6 -13 5 -11 0 -14 -3 -6 -6z"/>
<path d="M10810 580 c-18 -12 -2 -12 25 0 13 6 15 9 5 9 -8 0 -22 -4 -30 -9z"/>
<path d="M10745 564 c-40 -14 -40 -14 -5 -9 19 3 39 10 44 15 12 12 12 12 -39
-6z"/>
<path d="M7205 563 c78 -18 96 -20 89 -13 -5 5 -31 11 -59 13 -27 3 -41 3 -30
0z"/>
<path d="M7310 546 c0 -2 9 -6 20 -9 11 -3 18 -1 14 4 -5 9 -34 13 -34 5z"/>
<path d="M10645 540 c-47 -12 -263 -59 -298 -65 -18 -3 -54 -10 -82 -15 -27
-5 -66 -12 -85 -15 -36 -6 -117 -20 -180 -31 -40 -7 -46 -7 -155 -23 -103 -14
-159 -21 -215 -26 -25 -3 -67 -7 -95 -10 -294 -30 -538 -40 -964 -37 -211 1
-382 0 -380 -2 9 -9 300 -19 539 -20 332 -1 573 11 835 39 17 2 57 6 90 10 33
3 105 13 160 21 55 8 118 17 140 20 22 3 56 9 75 14 19 5 55 12 80 15 25 3 52
8 60 10 8 2 31 7 50 10 110 19 480 104 480 111 0 5 -20 3 -55 -6z"/>
<path d="M7638 493 c7 -3 16 -2 19 1 4 3 -2 6 -13 5 -11 0 -14 -3 -6 -6z"/>
<path d="M7670 496 c0 -2 7 -7 16 -10 8 -3 12 -2 9 4 -6 10 -25 14 -25 6z"/>
<path d="M7240 290 c8 -5 26 -10 39 -10 32 0 24 6 -19 14 -25 4 -31 3 -20 -4z"/>
</g>
</svg>
